<?xml version="1.0" standalone="no"?>
<!DOCTYPE svg PUBLIC "-//W3C//DTD SVG 20010904//EN"
 "http://www.w3.org/TR/2001/REC-SVG-20010904/DTD/svg10.dtd">
<svg version="1.0" xmlns="http://www.w3.org/2000/svg"
 width="206.000000pt" height="192.000000pt" viewBox="0 0 206.000000 192.000000"
 preserveAspectRatio="xMidYMid meet">

<g transform="translate(0.000000,192.000000) scale(0.100000,-0.100000)"
fill="#663399" stroke="none">
<path d="M800 1718 c-377 -67 -687 -123 -690 -125 -5 -5 227 -1334 242 -1381
11 -37 77 -118 118 -145 69 -44 82 -43 712 68 400 71 599 110 626 124 80 41
134 128 135 216 0 50 -184 1116 -205 1189 -15 50 -88 130 -135 149 -80 31 -98
29 -803 -95z m870 -776 c41 -20 77 -70 86 -119 4 -18 5 -35 3 -37 -2 -2 -28
-7 -57 -11 l-52 -7 -6 31 c-8 39 -27 55 -58 47 -31 -8 -39 -31 -26 -72 10 -30
18 -36 78 -54 37 -11 81 -28 98 -39 65 -40 95 -174 56 -250 -27 -54 -63 -74
-137 -79 -80 -5 -123 18 -154 82 -32 64 -28 82 17 90 64 10 72 8 84 -25 22
-63 88 -56 88 10 0 53 -23 75 -102 101 -79 25 -115 51 -134 96 -18 43 -18 138
0 173 36 68 143 100 216 63z m-331 -89 c34 -35 71 -116 59 -128 -3 -3 -28 -9
-56 -14 l-50 -8 -11 38 c-13 44 -35 55 -68 33 -21 -13 -24 -21 -19 -47 9 -42
21 -52 91 -72 75 -21 122 -56 146 -109 24 -52 24 -131 1 -176 -34 -69 -135
-107 -209 -79 -45 17 -92 74 -99 121 -7 39 -5 40 66 52 32 5 36 3 50 -26 31
-65 82 -63 88 4 4 48 -28 81 -98 103 -111 34 -153 86 -153 191 0 95 63 154
166 154 55 0 62 -2 96 -37z m-374 -49 c29 -19 54 -62 65 -111 9 -36 7 -37 -70
-48 -45 -6 -46 -6 -55 27 -8 25 -16 34 -35 36 -41 4 -55 -12 -53 -60 3 -64 49
-287 63 -303 32 -38 87 -1 77 51 -5 26 1 29 76 40 l47 6 0 -54 c0 -41 -6 -64
-22 -88 -39 -57 -71 -74 -146 -78 -73 -3 -116 14 -146 60 -15 23 -76 335 -76
390 0 42 25 94 54 113 71 47 166 55 221 19z"/>
</g>
</svg>
